<svg xmlns="http://www.w3.org/2000/svg" viewBox="0 0 500 500"><g id="freepik--Floor--inject-16"><ellipse id="freepik--floor--inject-16" cx="249.99" cy="348.39" rx="235.6" ry="136.03" style="fill:#f5f5f5"></ellipse></g><g id="freepik--Plants--inject-16"><g id="freepik--plants--inject-16"><path d="M49.25,343.33s4.27-21.21-3.14-43.17c-4.14-12.27-12-18.08-16.88-18.73-5.47-.71-11.13,4.35-6.44,12.49,4.45,7.73,13.31,11,18.11,31a86.43,86.43,0,0,1,2.5,18.8A1.73,1.73,0,0,0,46,345.24Z" style="fill:#000000"></path><g style="opacity:0.5"><path d="M49.25,343.33s4.27-21.21-3.14-43.17c-4.14-12.27-12-18.08-16.88-18.73-5.47-.71-11.13,4.35-6.44,12.49,4.45,7.73,13.31,11,18.11,31a86.43,86.43,0,0,1,2.5,18.8A1.73,1.73,0,0,0,46,345.24Z" style="fill:#fff"></path></g><path d="M46,338.59a.36.36,0,0,1-.3-.39c2.91-24.29-8.37-44.9-17.3-51.79a.34.34,0,0,1-.06-.48.35.35,0,0,1,.48-.06c9.06,7,20.5,27.86,17.56,52.42A.35.35,0,0,1,46,338.59Z" style="fill:#fff"></path><path d="M45.48,345.53a1.73,1.73,0,0,1-2.58-1.08c-1.16-4.88-4.14-9.93-9.74-15.29-6.51-6.24-15.52-12-14.08-17.39s8.64-4.15,13.66-1.09S48.92,325.24,46.29,345Z" style="fill:#000000"></path><g style="opacity:0.65"><path d="M45.48,345.53a1.73,1.73,0,0,1-2.58-1.08c-1.16-4.88-4.14-9.93-9.74-15.29-6.51-6.24-15.52-12-14.08-17.39s8.64-4.15,13.66-1.09S48.92,325.24,46.29,345Z" style="fill:#fff"></path></g><path d="M45,345.92a.33.33,0,0,1-.3-.32C45.32,330.73,33,314.1,24.19,311a.33.33,0,0,1-.2-.44.35.35,0,0,1,.44-.2c8.79,2.34,22.26,20.31,21,35.23a.35.35,0,0,1-.32.36Z" style="fill:#fff"></path></g><g id="freepik--plants--inject-16"><path d="M455.74,346s-4.27-21.21,3.15-43.17c4.14-12.27,12-18.08,16.87-18.73,5.48-.72,11.14,4.35,6.45,12.49-4.45,7.73-13.32,11-18.11,31a86.43,86.43,0,0,0-2.5,18.8,1.74,1.74,0,0,1-2.62,1.48Z" style="fill:#000000"></path><g style="opacity:0.5"><path d="M455.74,346s-4.27-21.21,3.15-43.17c4.14-12.27,12-18.08,16.87-18.73,5.48-.72,11.14,4.35,6.45,12.49-4.45,7.73-13.32,11-18.11,31a86.43,86.43,0,0,0-2.5,18.8,1.74,1.74,0,0,1-2.62,1.48Z" style="fill:#fff"></path></g><path d="M459,341.22a.34.34,0,0,0,.3-.38c-2.91-24.29,8.36-44.91,17.3-51.79a.34.34,0,0,0-.42-.54c-9.06,7-20.5,27.85-17.56,52.41A.33.33,0,0,0,459,341.22Z" style="fill:#fff"></path><path d="M459.52,348.17a1.72,1.72,0,0,0,2.57-1.08c1.17-4.88,4.15-9.93,9.75-15.29,6.51-6.24,15.52-12,14.08-17.39s-8.65-4.15-13.66-1.09-16.18,14.56-13.56,34.36Z" style="fill:#000000"></path><g style="opacity:0.65"><path d="M459.52,348.17a1.72,1.72,0,0,0,2.57-1.08c1.17-4.88,4.15-9.93,9.75-15.29,6.51-6.24,15.52-12,14.08-17.39s-8.65-4.15-13.66-1.09-16.18,14.56-13.56,34.36Z" style="fill:#fff"></path></g><path d="M460,348.56a.33.33,0,0,0,.3-.32c-.61-14.87,11.67-31.51,20.52-34.63a.34.34,0,0,0,.2-.44.35.35,0,0,0-.44-.2c-8.79,2.34-22.26,20.31-21,35.23a.37.37,0,0,0,.32.36Z" style="fill:#fff"></path></g></g><g id="freepik--Shadows--inject-16"><ellipse id="freepik--Shadow--inject-16" cx="78.86" cy="365.33" rx="50.35" ry="29.07" style="fill:#e0e0e0"></ellipse><ellipse id="freepik--shadow--inject-16" cx="420.55" cy="365.33" rx="50.35" ry="29.07" style="fill:#e0e0e0"></ellipse><polygon id="freepik--shadow--inject-16" points="149.52 437.95 69.5 391.75 149.52 345.55 229.55 391.75 149.52 437.95" style="fill:#e0e0e0"></polygon><polygon id="freepik--shadow--inject-16" points="352.63 437.95 272.6 391.75 352.63 345.55 432.65 391.75 352.63 437.95" style="fill:#e0e0e0"></polygon></g><g id="freepik--Flag--inject-16"><g id="freepik--flag--inject-16"><path d="M265.84,322.15c-8.75-5-22.93-5-31.68,0-4.37,2.53-6.55,5.84-6.54,9.15v3.42c0,3.31,2.17,6.62,6.54,9.15,8.75,5.05,22.93,5.05,31.68,0,4.37-2.53,6.55-5.84,6.54-9.15V331.3C272.39,328,270.21,324.68,265.84,322.15Z" style="fill:#000000"></path><path d="M265.84,322.15c-8.75-5-22.93-5-31.68,0-4.37,2.53-6.55,5.84-6.54,9.15v3.42c0,3.31,2.17,6.62,6.54,9.15,8.75,5.05,22.93,5.05,31.68,0,4.37-2.53,6.55-5.84,6.54-9.15V331.3C272.39,328,270.21,324.68,265.84,322.15Z" style="fill:#fff;opacity:0.30000000000000004"></path><path d="M234.16,322.15c-8.75,5.05-8.75,13.24,0,18.29s22.93,5.05,31.68,0,8.75-13.24,0-18.29S242.91,317.1,234.16,322.15Z" style="fill:#000000"></path><path d="M234.16,322.15c-8.75,5.05-8.75,13.24,0,18.29s22.93,5.05,31.68,0,8.75-13.24,0-18.29S242.91,317.1,234.16,322.15Z" style="fill:#fff;opacity:0.5"></path><path d="M264.23,318.89c-7.86-4.54-20.6-4.54-28.46,0-3.93,2.27-5.88,5.24-5.87,8.22v2.25c0,3,1.94,5.94,5.87,8.21,7.86,4.54,20.6,4.54,28.46,0,3.93-2.27,5.88-5.24,5.87-8.21v-2.25C270.11,324.13,268.16,321.16,264.23,318.89Z" style="fill:#000000"></path><path d="M264.23,318.89c-7.86-4.54-20.6-4.54-28.46,0-3.93,2.27-5.88,5.24-5.87,8.22v2.25c0,3,1.94,5.94,5.87,8.21,7.86,4.54,20.6,4.54,28.46,0,3.93-2.27,5.88-5.24,5.87-8.21v-2.25C270.11,324.13,268.16,321.16,264.23,318.89Z" style="fill:#fff;opacity:0.30000000000000004"></path><ellipse cx="250" cy="327.11" rx="20.12" ry="11.62" style="fill:#000000"></ellipse><ellipse cx="250" cy="327.11" rx="20.12" ry="11.62" style="fill:#fff;opacity:0.5"></ellipse><path d="M252,43.66a2,2,0,0,0-2-2h0a2,2,0,0,0-2,2v283.5h0a1,1,0,0,0,.58.81,3.09,3.09,0,0,0,2.78,0,1,1,0,0,0,.58-.81h0Z" style="fill:#000000"></path><path d="M252,43.66a2,2,0,0,0-2-2h0a2,2,0,0,0-2,2v283.5h0a1,1,0,0,0,.58.81,3.09,3.09,0,0,0,2.78,0,1,1,0,0,0,.58-.81h0Z" style="opacity:0.2"></path><path d="M250,41.68h0a2,2,0,0,0-2,2V46A5.3,5.3,0,0,0,252,46V43.66A2,2,0,0,0,250,41.68Z" style="opacity:0.2"></path><path d="M255.49,39.7A5.49,5.49,0,1,1,250,34.21,5.48,5.48,0,0,1,255.49,39.7Z" style="fill:#000000"></path><path d="M255.49,39.7A5.49,5.49,0,1,1,250,34.21,5.48,5.48,0,0,1,255.49,39.7Z" style="fill:#fff;opacity:0.30000000000000004"></path><path d="M232.29,225.18C231,239.6,248.08,259.69,273.1,258.1l-9.47-82-26.4,3.56Z" style="fill:#455a64"></path><path d="M233.15,221a20.25,20.25,0,0,0-.86,3.59l8.51-77.23c14.46,4.49,26.07,16.18,28.19,33.13C271.28,198.69,239.52,201.36,233.15,221Z" style="fill:#37474f"></path><path d="M252.45,34.81a5.3,5.3,0,0,0-4.9,0,3.43,3.43,0,0,0,4.9,0Z" style="opacity:0.2"></path><path d="M254.47,29.65c0,2.47-2,5.41-4.47,5.41s-4.47-2.94-4.47-5.41S250,16.23,250,16.23,254.47,27.18,254.47,29.65Z" style="fill:#000000"></path><path d="M254.47,29.65c0,2.47-2,5.41-4.47,5.41s-4.47-2.94-4.47-5.41S250,16.23,250,16.23,254.47,27.18,254.47,29.65Z" style="fill:#fff;opacity:0.5"></path><path d="M252,50.67l-24.8,99.72s20.07,5.65,27.71,10.73c12.56,8.35,14.12,19.6,14.12,19.6Z" style="fill:#455a64"></path></g></g><g id="freepik--character-2--inject-16"><g id="freepik--Chartacter--inject-16"><g id="freepik--Bottom--inject-16"><polygon points="410.56 360.16 405.64 358.33 407.23 355 410.27 357.8 410.56 360.16"></polygon><path d="M415.59,351.27s.21,3.2.26,4.2-4.22,4.16-5.29,4.69l-.29-2.36a18.35,18.35,0,0,0-2.44,3.83c-.82,1.44-1.86,4.16-4.12,6-3.36,2.77-8.61,4.19-14,4.42s-8.44-1.08-10-2.24-2-2.51-1.65-3.87S415.59,351.27,415.59,351.27Z" style="fill:#263238"></path><path d="M401.19,340.44l-.07-1.86c-1,0-1.1,2.67-2.53,5a48,48,0,0,1-7.49,9.69c-5.41,5-10.25,8.12-12.66,10.37-3.23,3,2.49,7.71,11.24,7.17,4.35-.26,12.05-2.49,14.21-5.07s3.46-6.58,5.19-8.46,5.44-3.77,6.51-6c.59-1.25.26-4.15-.11-6.61-.34-2.26-.42-5.73-1.7-5.45l-.08,1.17c-.52,1-1.72,2.63-5.22,3.24C406.74,343.93,401.52,344.11,401.19,340.44Z" style="fill:#455a64"></path><path d="M405.67,343.73c-1.67-.14-3.47-.68-4.18-2.18l0-.05a4.26,4.26,0,0,1-1.11,3.57c-1.56,1.84-11.37,14.8-11.37,14.8s9.14-10.7,10.89-12.71c2.6-3,3.42-3.33,5.81-3.43Z" style="opacity:0.15"></path><path d="M378.44,363.67c2-1.9,5.8-4.44,10.18-8.18-.92,1.49-2.27,2.64-2.4,3.13-.34,1.22,3.27,2.89,5.46,3.45s4.67-2.58,7.88-5.44,6.08.45,7.2,4.42a26.51,26.51,0,0,1-2.87,4.72c-2.16,2.58-9.86,4.81-14.21,5.07C380.93,371.38,375.21,366.67,378.44,363.67Z" style="fill:#37474f"></path><path d="M403.51,347.16a.52.52,0,0,0,.59.47.54.54,0,0,0,.47-.59.54.54,0,0,0-.59-.47A.52.52,0,0,0,403.51,347.16Z" style="opacity:0.15"></path><path d="M400.94,350a.52.52,0,0,0,.59.47.53.53,0,1,0-.12-1.06A.52.52,0,0,0,400.94,350Z" style="opacity:0.15"></path><path d="M398.37,352.9a.54.54,0,0,0,.59.47.53.53,0,0,0-.12-1.06A.54.54,0,0,0,398.37,352.9Z" style="opacity:0.15"></path><path d="M395.8,355.77a.55.55,0,0,0,.6.47.53.53,0,1,0-.6-.47Z" style="opacity:0.15"></path><path d="M393.23,358.64a.54.54,0,0,0,1.07-.12.54.54,0,0,0-1.07.12Z" style="opacity:0.15"></path><path d="M404.06,347.32a.24.24,0,0,0,.13-.07.21.21,0,0,0,0-.3,8.81,8.81,0,0,0-6.07-2.37h0a.22.22,0,0,0-.2.22.21.21,0,0,0,.23.2,8.5,8.5,0,0,1,5.74,2.25A.25.25,0,0,0,404.06,347.32Z" style="fill:#263238"></path><path d="M401.49,350.18a.22.22,0,0,0,.13-.37,8.81,8.81,0,0,0-6.07-2.37h0a.23.23,0,0,0-.2.23.21.21,0,0,0,.23.2,8.5,8.5,0,0,1,5.74,2.25A.27.27,0,0,0,401.49,350.18Z" style="fill:#263238"></path><path d="M398.92,353.05a.2.2,0,0,0,.14-.06.22.22,0,0,0,0-.31,8.83,8.83,0,0,0-6.06-2.36h0a.21.21,0,0,0-.19.23.21.21,0,0,0,.23.2,8.52,8.52,0,0,1,5.73,2.24A.19.19,0,0,0,398.92,353.05Z" style="fill:#263238"></path><path d="M396.35,355.92a.2.2,0,0,0,.14-.06.22.22,0,0,0,0-.31,8.81,8.81,0,0,0-6.06-2.36h0a.22.22,0,0,0,0,.43,8.52,8.52,0,0,1,5.73,2.24A.19.19,0,0,0,396.35,355.92Z" style="fill:#263238"></path><path d="M393.78,358.79a.2.2,0,0,0,.14-.06.23.23,0,0,0,0-.31,8.87,8.87,0,0,0-6.07-2.36h0a.22.22,0,1,0,0,.43,8.59,8.59,0,0,1,5.74,2.24A.17.17,0,0,0,393.78,358.79Z" style="fill:#263238"></path><path d="M439.74,371.58c0,4.1.54,6.84,1.88,9.31s4,3.35,6.84,2.78,6.45-2.28,7.41-5.76a22.51,22.51,0,0,0,.47-9.74Z" style="fill:#263238"></path><path d="M453.3,342.31c1.14.14.64,5.3,1,10.83.21,2.82.14,5.42.63,7.32a36.64,36.64,0,0,1,1.29,6.53c.46,5.55.05,8-2,11.25s-9.1,6.19-12.24,1.25c-2.56-4-2.47-8.35-2-13.85.53-5.69-.25-9.62-.27-14,0-4.14-1.18-8.47.53-8.46.05.61.09,1.38.14,2s0,2.71.69,2.76a9,9,0,0,0,.08-1.56,1.87,1.87,0,0,1,.38-1.31,2.11,2.11,0,0,1,1.29-.51c1.14-.17,3.84-.48,5-.53.58,0,2.27-.23,2.84-.19a4.43,4.43,0,0,1,1.44.27,1.07,1.07,0,0,1,.59.59,2,2,0,0,1,0,.64,4.39,4.39,0,0,0,.09,1.14c0,.16.13.36.3.33s.19-.19.2-.32c0-.67,0-1.16,0-1.93,0-.36,0-.85,0-1.21S453.31,342.66,453.3,342.31Z" style="fill:#455a64"></path><path d="M452,368.15a.4.4,0,0,1-.38.42.39.39,0,0,1-.42-.37.4.4,0,0,1,.38-.42A.39.39,0,0,1,452,368.15Z" style="opacity:0.15"></path><path d="M451.8,364.33a.4.4,0,1,1-.42-.38A.4.4,0,0,1,451.8,364.33Z" style="opacity:0.15"></path><path d="M451.61,360.72a.4.4,0,1,1-.42-.38A.4.4,0,0,1,451.61,360.72Z" style="opacity:0.15"></path><path d="M451.42,357.16a.4.4,0,0,1-.37.42.41.41,0,0,1-.43-.38.4.4,0,1,1,.8,0Z" style="opacity:0.15"></path><path d="M443.91,357.28a.4.4,0,1,1-.42-.38A.4.4,0,0,1,443.91,357.28Z" style="opacity:0.15"></path><path d="M444.1,360.86a.4.4,0,0,1-.38.42.39.39,0,0,1-.42-.37.4.4,0,0,1,.38-.42A.39.39,0,0,1,444.1,360.86Z" style="opacity:0.15"></path><path d="M444.29,364.48a.41.41,0,0,1-.38.42.4.4,0,1,1,.38-.42Z" style="opacity:0.15"></path><path d="M444.49,368.3a.4.4,0,0,1-.38.42.39.39,0,0,1-.42-.37.4.4,0,0,1,.38-.42A.39.39,0,0,1,444.49,368.3Z" style="opacity:0.15"></path><path d="M456.25,367a32.11,32.11,0,0,0-1.08-5.73,2.35,2.35,0,0,0-.48.57,5.44,5.44,0,0,0-.59,1.67c-.18.72-.37,1.54-.52,2.17-.4,1.66-.88,3.45-2.31,4.56A4.89,4.89,0,0,1,448,371a12.86,12.86,0,0,1-3-.25c-1.26-.39-1.51-1.55-1.84-2.68-.4-1.41-.83-2.81-1.28-4.21a4.16,4.16,0,0,0-1-1.88,2.76,2.76,0,0,0-.7-.31c0,1.33-.06,2.55-.19,4-.51,5.5-.6,9.82,2,13.85,3.14,4.94,10.15,2,12.24-1.25S456.71,372.54,456.25,367Z" style="fill:#37474f"></path><polygon points="447.76 370.26 445.96 343.54 447.44 343.58 447.76 370.26" style="opacity:0.15"></polygon><path d="M451.61,368.38h-.06a12.38,12.38,0,0,0-7.38.11.2.2,0,0,1-.27-.1.21.21,0,0,1,.11-.27,12.51,12.51,0,0,1,7.64-.13.21.21,0,0,1,.15.25A.21.21,0,0,1,451.61,368.38Z" style="fill:#263238"></path><path d="M451.41,364.55l-.1,0c-2-1-5.28-.76-7.34.13a.21.21,0,0,1-.27-.11.19.19,0,0,1,.11-.26c2.15-.93,5.61-1.23,7.69-.12a.2.2,0,0,1-.09.38Z" style="fill:#263238"></path><path d="M451.22,360.94l-.1,0c-2-1.05-5.28-.76-7.34.13a.21.21,0,0,1-.27-.11.19.19,0,0,1,.11-.26c2.15-.93,5.61-1.23,7.69-.12a.2.2,0,0,1-.09.38Z" style="fill:#263238"></path><path d="M451,357.38l-.1,0c-2-1.05-5.28-.76-7.34.13a.21.21,0,1,1-.16-.38c2.15-.92,5.61-1.22,7.69-.11a.19.19,0,0,1,.08.27A.18.18,0,0,1,451,357.38Z" style="fill:#263238"></path><path d="M448.18,191.29c1.24,3.94,2.57,18.46,3.13,24.55,2.34,25,2.5,60.34,2.5,60.34.26,2.62,1.59,5,2.28,17.59.76,13.67-.78,59.29-.78,59.29s-10.45,4.41-16.57.46c0,0-8.82-54.49-10.76-68-1.71-11.8-4.3-30.56-4.3-30.56l-3.18,29.68s.71,9.38.47,16.26c-.27,8-5.12,43.11-5.12,43.11s-10.17,3.64-17.48-.92c0,0-1.81-54.38-2.11-64-.59-18.87,0-60.94.55-81.22Z" style="fill:#263238"></path><path d="M423.68,255,421,234.07s-8.47-.75-13.3-5c0,0,1.47,5,10.84,7.59L420.75,253l.15,27.08Z"></path></g><g id="freepik--Top--inject-16"><path d="M374.92,167.87c-7.64-5.48-9.83-7-10.71-9s-.62-4.06-1.26-7.38a22.52,22.52,0,0,1,0-8.56c.45-1.71-1.6-1.5-3.26.58s-1,3.29-1.46,5.32-1.33,1.79-2.57.55-7.11-7.5-9.18-9.28-3.52-1.36-4.07-.43c-.31.53.78,1.62,3.36,4.48s5.3,5.24,5.1,5.42-2.84-2.43-5.83-5c-2.75-2.33-4.35-3.48-5.89-3.33-1.76.18-1.85,1.5-1.36,1.89a77.12,77.12,0,0,1,6.49,5.48,33.75,33.75,0,0,1,3.41,3.44c-.14.33-2.35-1.48-5.42-3.25-2.8-1.62-4.4-2.31-6-1.46-.33.18-.78.67-.66,1,.26.68,2.56,1.81,3.93,2.69,2,1.29,2.19,1.32,3.64,2.37,1,.72,2.28,1.67,2.19,1.86s-5.06-2.19-6.81-2.16c-1.5,0-2.57.86-1.25,1.79s8.51,5.28,11.22,7.17,5.69,4.4,8.25,6.46,13.77,10.34,13.77,10.34Z" style="fill:#b16668"></path><path d="M356.8,152.43c-1.43,2.44.19,6.29,2,8.43C356,158.85,354.26,155.79,356.8,152.43Z" style="fill:#9a4a4d"></path><path d="M408.61,165.19,410,139.9c-6.78,1.57-9.55,3.54-13.92,10.88-2.44,4.09-8,13-13.13,21.15l-15.12-10.81s-6.5,5.66-7.76,11.48c0,0,17.87,15.72,21.82,18.47,3.61,2.5,6.31,4,11.4-1.76S407.28,167.49,408.61,165.19Z" style="fill:#263238"></path><path d="M383,171.93c3.19,2.2,6.35,6.36,6.85,9.64a13.55,13.55,0,0,0-5.87-11.18Z"></path><path d="M418.41,137.41c2.34.2,15.68-.36,19.24.71,2.87.87,6.32,1.69,8.81,2.65s2.32,2.84,2.46,6.55c.47,12.75-.74,40.17-.74,40.17l1.24,17.5c-6.07,6.21-37.66,11.3-52.61,1.66,0,0,.59-32.71,2.12-48.61,1.26-13.09,7.09-16.56,11.61-18C416.42,138.12,418.41,137.41,418.41,137.41Z" style="fill:#fafafa"></path><path d="M439.05,110.55c-1.84,8.54-11.19,13.78-20.89,11.69S402.08,111.55,403.92,103s11.18-13.78,20.89-11.69S440.88,102,439.05,110.55Z" style="fill:#263238"></path><path d="M433.07,99.4s3.56.32,5,2.92c4.05,2.13,4.26,7.86,2.05,14.19-2.07,5.92-3.73,6.91-4.76,8.51-1.61,2.52-2.38,3.6-2.38,3.6l-.29-5.42.07-5s-3.49-3.65-4.09-7.47A15.84,15.84,0,0,1,429,103C429.47,101.34,430.85,99.32,433.07,99.4Z" style="fill:#263238"></path><path d="M432.52,117.43c1.14.19,1.78-1.8,2.75-2.86a3.57,3.57,0,0,1,5.88,1.15c1.73,3.45-.31,6.82-3.08,8.25a4.93,4.93,0,0,1-5-.9l-.26,13.63,0,.21c-3,4-7.89,2.1-14.11,7.36a14.12,14.12,0,0,1-.29-4.9l-.08-4.86s-4.19.49-6.82-.44c-3.1-1.1-5-3.13-6.29-6.55-1.39-3.74-1.78-13.42-.55-20.29,1-5.41,2.37-6.66,6.38-7.55a31.19,31.19,0,0,1,16.11,1.12c1.78.68,1.78,1.27,1.39,2.84C426.66,112,431.39,117.23,432.52,117.43Z" style="fill:#b16668"></path><path d="M417.4,123.78c2.2-.9,4.44,1.19,3.26,2-.52.35-1.5.07-2.27.4-.95.41-1.43,1.27-2.2,1.1C415.17,127,415.2,124.67,417.4,123.78Z" style="fill:#9a4a4d"></path><path d="M417.27,126.89a2.65,2.65,0,0,1,2.65-2.62,2.74,2.74,0,0,1,.64.09c.48.48.61,1.06.1,1.39s-1.5.07-2.27.4A5.31,5.31,0,0,0,417.27,126.89Z" style="fill:#f28f8f"></path><path d="M418.27,134.51a27.07,27.07,0,0,0,8.62-2.85,10,10,0,0,0,4.07-4.78,8.81,8.81,0,0,1-1.75,4.9c-1.85,2.37-10.9,4.92-10.9,4.92Z" style="fill:#9a4a4d"></path><path d="M419.59,114.5A1.45,1.45,0,1,0,421,113,1.48,1.48,0,0,0,419.59,114.5Z"></path><path d="M420,109.44l3.14,1.64a1.85,1.85,0,0,0-.77-2.45A1.73,1.73,0,0,0,420,109.44Z"></path><path d="M410.1,107.65l-3.38,1.17a1.72,1.72,0,0,0,2.21,1.14A1.88,1.88,0,0,0,410.1,107.65Z"></path><path d="M407,113.75a1.46,1.46,0,1,0,1.42-1.55A1.48,1.48,0,0,0,407,113.75Z"></path><path d="M415.68,111.56l-1.44,10.27L409,120.06C410.52,116.86,413.07,113.19,415.68,111.56Z" style="fill:#9a4a4d"></path><path d="M416,146.68a8.38,8.38,0,0,1-1-3.84l2-1.52,1.07,3.3Z" style="fill:#000000"></path><path d="M416,146.68a8.38,8.38,0,0,1-1-3.84l2-1.52,1.07,3.3Z" style="opacity:0.25"></path><polygon points="419.81 144.75 424.81 141.07 428.84 144.19 421.08 148.25 419.81 144.75" style="fill:#000000"></polygon><polygon points="419.81 144.75 424.81 141.07 428.84 144.19 421.08 148.25 419.81 144.75" style="opacity:0.25"></polygon><path d="M419.46,150.61c-.28,3.7.34,23.86,1.31,36.14.23,3-3.68,9.47-4.72,9.42s-3.39-5.64-3.93-9c-.21-8.1,3-32.41,4.75-36.85Z" style="fill:#000000"></path><path d="M416.74,150.72c0-.13.09-.25.13-.36l2.59.25-.07,1.08A4.4,4.4,0,0,1,416.74,150.72Z" style="opacity:0.15"></path><path d="M419.82,144.75a8.72,8.72,0,0,0-1.7-.19,5.29,5.29,0,0,0-2.17,2.08,9,9,0,0,0,.92,3.72,3.11,3.11,0,0,0,2.59.25,5.4,5.4,0,0,0,1.87-2.49A4.92,4.92,0,0,0,419.82,144.75Z" style="fill:#000000"></path><path d="M432.89,132l0,1.28c-.19,1-2.29,3.22-7.33,5.55s-6.89,5.47-6.89,5.47,2-1.57,3.56,0c2.25,2.22,3.3,4.15,4.39,4.1s6.35-2.68,8.84-6a18.61,18.61,0,0,0,2.35-4.33C434.37,136,434.25,132,432.89,132Z" style="fill:#e6e6e6"></path><path d="M418.64,144.27c-1.83-1.27-4,2.33-4.5,1.66s1.42-8.36,4.14-10.22Z" style="fill:#e6e6e6"></path><path d="M434.86,134.75c-.26,4.43-19.55,46.14-19.55,46.14s-6.17-23.74,1.23-43.2A32.59,32.59,0,0,0,410,139.9c-4.57,1.91-10.61,5.2-12.27,17.74s-2,63.63-2,63.63a72,72,0,0,0,48.46,3l.66-8.41,1.93,7.34a14.15,14.15,0,0,0,5.28-2.32c-1-12-1.56-34.67-1.65-42.43-.1-8.69.11-25.75-.1-31.13s-.52-5.62-4.35-7.1S438.18,138.07,434.86,134.75Z" style="fill:#37474f"></path><path d="M417.65,136.26a16.91,16.91,0,0,1-3,1.89s-5.1,8.52-7,14-1.95,6.43,2.85,6.65c-2.82,1.46-3.53,1.39-.87,10.31a68,68,0,0,0,5.76,14.13l.17-2s-2.37-12.65-2.28-22.26C413.4,143.91,417.65,136.26,417.65,136.26Z" style="fill:#263238"></path><path d="M434.43,133.92c.43.83,3.34,3.12,6.16,4.38-1,5.65-2.84,14.57-4.73,18.46s-4.43,3-7.45,2.61c1.54,3.56,3.53,3.92-1.23,9.51-6.68,7.87-12.83,13-14.32,21.25.22-8.76,4-15.26,5.93-21s6-12.93,9.84-20.78A106.2,106.2,0,0,0,434.43,133.92Z" style="fill:#263238"></path><path d="M446,140.2c8.54,1.25,12.67,3.78,15.14,9.87s6.4,21,8.54,30c1.84,7.72,2.62,14.69.71,18l-16.33-7-7.6-24.35S440.26,148,446,140.2Z" style="fill:#263238"></path><path d="M452.65,179.2c1.37,1.94,3,2.71,6.43,4.37,3.24,1.55,7,3,8.92,6.56-.54-3.27-2.31-4.89-6.34-7.2s-9.94-5.05-9.94-5.05Z"></path><path d="M452.65,179.2c1.37,1.94,3,2.71,6.43,4.37,3.24,1.55,7,3,8.92,6.56,1.7,3.12,3.55,5.72,2.39,8-.79,1.55-5.35,2.49-9.65,2.17s-7.18-3.91-11.5-7c-3.69-2.67-5.63-4.37-5.63-4.37Z" style="fill:#263238"></path><path d="M446.87,182.12c1.61-1.43,2-3,4.32-4.11s3.75-1,6.22-2.08,4.46-1.58,6.23-.88,1.43,1.72,0,2.5-3.81,1.75-5.51,2.83-3.32,1.66-3.45,3.71a89.05,89.05,0,0,0,.11,9.78c.23,3.47.74,6.3.46,6.65s-1.77.44-2.56-1.54-1.53-9.06-1.53-9.06-1,4.82-1.45,8.15-.75,5.88-.89,6.59-2.48,0-2.71-2.54.74-10,.74-10l-3.59,5.42c-1.41,2.13-3.17,5.05-3.73,5.76s-2-.7-1.5-2.69,3.37-6.74,3.37-6.74-3.32,3.06-3.88,3.34-2.21-.07-1.5-2.26c.47-1.45,1.48-2.34,4.16-5.05s2.72-3.89,3.58-5.15C444.9,183.09,445.69,183.15,446.87,182.12Z" style="fill:#b16668"></path><path d="M453,183.67c-2.56.94-4.93-.33-5.23-1C447.83,184.43,451.18,185.64,453,183.67Z" style="fill:#9a4a4d"></path><path d="M435.88,196.22a1.13,1.13,0,0,0,1.57,0,39.46,39.46,0,0,0,3.07-2.88c.75-.76,3.34-3.45,3.34-3.45l-2.45,4s-3.32,3.06-3.88,3.34A1.22,1.22,0,0,1,435.88,196.22Z" style="fill:#9a4a4d"></path></g></g></g><g id="freepik--character-1--inject-16"><g id="freepik--Character--inject-16"><g id="freepik--bottom--inject-16"><path d="M50,344.55c-.32,2-1,4.28-1.45,8.34s.39,4.19-2,14.37c-1.46,6.11-.94,7.83,2.18,13.28,3.37,5.87,9.18,4.48,11.76-1.66,2.21-5.25,1.58-7.66,1.47-13s-.07-7,.08-11.23c.14-3.77-.22-6.34,0-9.23Z" style="fill:#37474f"></path><path d="M49.1,359.33c.64-5.23.7-10.64.9-14.17.44-7.92-1.48-23.5-.6-35.4l20-2.44C68.81,312,63.7,333,62,345.72c0,0-.44,17.17-1.39,24.75a1.45,1.45,0,0,1-2,1.17,13.15,13.15,0,0,0-9.08-.4,1.46,1.46,0,0,1-2-1.34C47.5,367.1,48.62,363.26,49.1,359.33Z" style="fill:#ffbda7"></path><path d="M107.32,306.07c-.08,16.45-.73,29.2-.14,33.47a47.23,47.23,0,0,0,2.74,10.5c1.1,3,2.92,7,4.56,8.89,0,0,4.7,5,3.65,5.53s-10.89,1.55-15.29.22-4.88-5.06-6.38-11.89-2.8-16.8-2.8-16.8a4.42,4.42,0,0,0,.46-1.16c.58-2-1.21-7.08-1.66-12Z" style="fill:#ffbda7"></path><path d="M89.72,346.05c.11,2.23,1.5,3.47,2,6a44,44,0,0,1,.88,8.68c0,3.56,0,4.07,0,4.07h1.11s0-5.15-.06-7.41.19-3.91,1.27-4.16C94.94,353.2,95.06,346,89.72,346.05Z" style="fill:#263238"></path><path d="M93.26,335.41a45,45,0,0,1-2.6,6,8.78,8.78,0,0,0-1,3.47,3.6,3.6,0,0,0,1.12,2.94,20.17,20.17,0,0,1,2.52,2.89c1.35,1.81,3.88,6,4.58,9s1.1,5.6,3.66,7.08c2,1.16,10.19,2.77,14.33,3,5.66.36,7.12-2.36,5-4.54s-5.71-5.89-6.36-6.35a10.23,10.23,0,0,0-5.26.73c-3.17,1.36-4.18,3.21-7.5,1.55-3-1.51-3.82-7.07-4-15.09C97.54,333.74,93.26,335.41,93.26,335.41Z" style="fill:#37474f"></path><path d="M59.21,193.72a20.67,20.67,0,0,1-2.34,6.8c-3.57,6.89-6.61,11.63-6.64,24.1-.09,28.39.88,55.72.88,55.72-.2,2.5-2.09,8.57-2.36,22.85-.21,11.38.33,41.36.33,41.36s6.78,3.89,13.86,1.17C64.83,334,72,296.5,74.7,284.06c2.89-13.1,5.84-28.72,5.84-28.72l4.9,22.86A66.23,66.23,0,0,0,85.63,293c.9,7.59,6.7,43.94,6.7,43.94s7.9,2.83,15.54-1.23c0,0,0-47.77.52-56.12.49-8.12-2.58-65.88-5.15-85.57C93.87,199.18,67.22,199.05,59.21,193.72Z" style="fill:#263238"></path><path d="M80.54,255.34l2.62-23.93s9.85-.65,16.16-6.87c0,0-2.85,7.38-13.25,10l-3.36,22.05,2.73,21.65Z"></path></g><g id="freepik--top--inject-16"><path d="M163.74,137.37a4.34,4.34,0,0,0-2.59.2,28.65,28.65,0,0,0-3.71,2.08c-1.9,1-5,2.73-7.15,2.63-.45,0-1.37-.2-.77-.76a17.49,17.49,0,0,0,2.31-2.24,3.86,3.86,0,0,0,.91-3,1.32,1.32,0,0,0-.45-.84c-.37-.27-.63-.1-.91.12a7.6,7.6,0,0,1-1,.59l-2.06,1.19c-4,2.34-8,5.07-10.35,9.17-.35.59-2.41,5.27-3.74,7.91-1.09,2.41-9.3,17.49-9.3,17.49l-14.65-14.28c-3.28-3.28-6.55-6.32-9.46-7.43-2.08-.81-5-1.87-5-1.87l5.35,25.08s15.47,11.64,17.68,13.24c3.28,2.37,9.83,6.21,13.08,2.2,4.41-5.45,6.56-13.3,8.62-19.3s3.16-9.63,4.34-11.7,3.12-2.21,4.48-2.63a21.22,21.22,0,0,0,5.37-2.35,19.36,19.36,0,0,0,4.13-3,5.84,5.84,0,0,0,1.6-1.91,18.87,18.87,0,0,1,.38-2,22.18,22.18,0,0,0,1.25-2.09,7.59,7.59,0,0,0,.12-1.91,3.23,3.23,0,0,1,1.38-2.25,3.09,3.09,0,0,0,.89-1.05C164.79,137.87,164.32,137.53,163.74,137.37Z" style="fill:#ffbda7"></path><path d="M131.19,159.86l2-3.41a10.43,10.43,0,0,0,4.16,4.88c3.3,2.2,5.53,1.4,5.53,1.4l-1.21,4.1s-2.49.92-6.43-1.68S131.19,159.86,131.19,159.86Z" style="fill:#000000"></path><path d="M95.22,147.76c2.74.66,5.44,1,8.65,3.48,3.53,2.74,20.89,18.06,20.89,18.06l7.09-10.91s.4,3,4.53,5.4c4.35,2.52,5.92,1.67,5.92,1.67s-3.23,13-6.78,19.34-5.58,8.45-11.38,5.83-25.6-17.38-25.6-17.38Z" style="fill:#263238"></path><path d="M147.78,144.19a14.14,14.14,0,0,1-4.91,6.17,5.86,5.86,0,0,0,3.65-1.86A5.53,5.53,0,0,0,147.78,144.19Z" style="fill:#f0997a"></path><path d="M124.76,169.3c-2.48,4.3-3.25,9.82-2.74,12.64a14.8,14.8,0,0,1,1.22-14.13Z"></path><path d="M64.23,146.82c-5.15,2-8.16,3.13-8.16,3.13-1.07,2.81-3.35,9.59-2.1,17.13s5.12,23.52,4.3,26.66-6.46,12.94-8,22.34a26.24,26.24,0,0,0,5.94,4.28s2.2-9.13,3.69-13.38c0,7.81-.14,14.13-.14,14.13s7.27,4.8,31.4,2.5c12.92-1.23,15.16-6.33,15.16-6.33s-2.57-21-2.57-25.91V178.19a13.52,13.52,0,0,0,3.42-10.76c-.63-7-9.55-17.36-11.94-19.67-1.88-.76-10.39-3.6-10.39-3.6Z" style="fill:#37474f"></path><path d="M69.44,146.37c.73,3.68,2.2,4.57,6.37,9.15S93,172.56,94.22,178c.79-4.64,1.85-10.86.62-16.29s-4.19-12.63-8.87-16.3l-16.12-.69Z" style="fill:#000000"></path><g id="freepik--Head--inject-16"><g id="freepik--head--inject-16"><path d="M97.85,118.54c3.9-14.36-9.34-21.71-22.51-19.39-4.34.76-9.94,3.24-10.54,9.43-5.73,1.79-8.49,9.47-4.95,17.65,2.57,6,7.7,8.91,10,12.56Z" style="fill:#e0e0e0"></path><path d="M64.54,120.59c3.68-1.6,5.53,2.25,5.53,2.25,2.4,1.49,3.78-3.31,4.3-4.76.92-2.52,1.79-6.12,4.59-7.17,2.08-.78,4.43,0,6.33,1.14a4.85,4.85,0,0,0,3.81.5c1.14-.31,1.5-2.09,2.54-2.65,3-1.61,5,3.38,5.73,5.68a28.87,28.87,0,0,1,.9,8.88c-.22,10.7-4,15.72-5.83,16.7s-4.06,1.24-7.64,1l0,3.16a29.71,29.71,0,0,1,2.57,11c-7.88-2.6-12.64-6.16-17.57-10.87l0-14.35c-.67,1.4-3.85,2.07-5.81-.45C61.51,127.35,61,122.13,64.54,120.59Z" style="fill:#ffbda7"></path><path d="M84.8,142.11C81.33,141.57,75,139.88,74,137c0,0-.16,2.32,2.52,4.36,2.24,1.7,8.36,2.77,8.36,2.77Z" style="fill:#f0997a"></path></g><path d="M95.35,116.51l-3.27,1.76a1.77,1.77,0,0,1,.69-2.49A1.94,1.94,0,0,1,95.35,116.51Z" style="fill:#455a64"></path><path d="M81.17,117.56l3.56,1.08a1.78,1.78,0,0,0-1.17-2.31A2,2,0,0,0,81.17,117.56Z" style="fill:#455a64"></path><path d="M95.42,122.59A1.53,1.53,0,0,1,94,124.27a1.55,1.55,0,0,1-1.63-1.45,1.53,1.53,0,0,1,1.38-1.68A1.55,1.55,0,0,1,95.42,122.59Z" style="fill:#263238"></path><path d="M84,123.44a1.53,1.53,0,0,1-1.38,1.68A1.57,1.57,0,1,1,84,123.44Z" style="fill:#263238"></path><path d="M80.51,122.69a.38.38,0,0,0-.22-.16c-.16-.07-.32-.12-.49-.18l-.63-.23-.55-.17-.35-.08a1.37,1.37,0,0,0-.45,0c-.12,0-.14.18-.11.28a.39.39,0,0,0,.26.27l.26.08.18,0,.08,0h0l.17,0,.57.19A3.26,3.26,0,0,0,80,123a.82.82,0,0,0,.38-.06A.21.21,0,0,0,80.51,122.69Z" style="fill:#f0997a"></path><path d="M80.4,123.86a.76.76,0,0,0-.55-.31,4.16,4.16,0,0,0-.93-.06c-.36,0-.72,0-1.07.05s-.14.55.11.57a8.57,8.57,0,0,0,1.34,0,4.64,4.64,0,0,1,.53,0h.24l.16,0c.1,0,.09,0,.16-.09A.12.12,0,0,0,80.4,123.86Z" style="fill:#f0997a"></path><path d="M80.35,124.62c-.09-.09-.23-.05-.33,0l-.24.06-.47.15-.45.13-.19,0-.24.08a.21.21,0,0,0-.13.19v.05a.29.29,0,0,0,.15.25.39.39,0,0,0,.21,0h.07a1.52,1.52,0,0,0,.21,0l.24-.06a4.26,4.26,0,0,0,.47-.15,1.54,1.54,0,0,0,.57-.29.42.42,0,0,0,.14-.18C80.39,124.79,80.41,124.68,80.35,124.62Z" style="fill:#f0997a"></path><path d="M101.28,117.73l-.71,0a21.48,21.48,0,0,0-7.23.76c-2.32.88-3.16,1.74-4.44,1.84s-2.19-.64-4.63-1.18a23.78,23.78,0,0,0-7.7.33l-.78.14a1.42,1.42,0,0,0-.9,1.37,2.63,2.63,0,0,0,.69,1.46,1.68,1.68,0,0,1,.23.59,26.23,26.23,0,0,0,.8,4.12,4.61,4.61,0,0,0,.94,1.43,3.17,3.17,0,0,0,.49.4,2.68,2.68,0,0,0,.28.18,4.43,4.43,0,0,0,.85.36l.15,0,.22.05.24,0a6,6,0,0,0,.76.07h.33l.41,0a5.93,5.93,0,0,0,5.38-3.49c.84-1.64.71-3.87,2.17-4h.27c1.07.18.87,2.25,1.5,3.68a5.23,5.23,0,0,0,1,1.54,1.75,1.75,0,0,0,.24.23l.12.11.14.1.12.09.13.08.11.07.07,0a4.09,4.09,0,0,0,1.25.42l.11,0a6.93,6.93,0,0,0,1.54.05,5.08,5.08,0,0,0,4.57-3.23,30.24,30.24,0,0,0,1-4.25,1.52,1.52,0,0,1,.28-.57A3.1,3.1,0,0,0,102,119C102.09,118.33,101.68,117.75,101.28,117.73Zm-15.39,7A5.47,5.47,0,0,1,84.72,127h0a4.88,4.88,0,0,1-3.49,1.51A3.42,3.42,0,0,1,78,127.18l-.1-.15a.6.6,0,0,1-.09-.15l-.08-.14-.06-.13,0-.1,0-.1-.06-.15h0q-.09-.24-.15-.45h0c0-.1,0-.19-.07-.28a4.31,4.31,0,0,1-.09-.44s0,0,0-.08v-.08c-.21-1.09-.43-3.25.13-3.78s2-1.14,4.37-1.08h.25a7.61,7.61,0,0,1,1.07.11l.42.07c.36.08.71.17,1,.27l.32.12.34.14.07,0,.12.07a1.91,1.91,0,0,1,.69.52C86.39,122.05,86.2,123.5,85.89,124.75Zm13.77-1.47A5.46,5.46,0,0,1,97.31,127a4.29,4.29,0,0,1-1.77.52,3.42,3.42,0,0,1-3.47-1.41h0A.61.61,0,0,1,92,126l-.06-.11,0-.06a1.3,1.3,0,0,1-.08-.17l-.09-.2,0-.09s0,0,0-.06l0-.08a.14.14,0,0,0,0-.06,5,5,0,0,1-.2-.81,5.49,5.49,0,0,1,.19-3.36c.47-.71,2.23-1.58,3.91-1.91.39-.08.75-.13,1.09-.17h1.25a4.46,4.46,0,0,1,.54.06l.12,0h0l.08,0,.13,0,.16,0a1.84,1.84,0,0,1,.25.09h0a1.64,1.64,0,0,1,.57.34C100.28,120,99.92,122.16,99.66,123.28Z" style="fill:#37474f"></path><path d="M75.67,119.78l-7.27,1.35a5.43,5.43,0,0,1,1.39,1.46l5.92-1Z" style="fill:#37474f"></path><path d="M88.23,122.42l1,8.72,5.13-1.8-5.57-7.12A1.24,1.24,0,0,0,88.23,122.42Z" style="fill:#f0997a"></path><path d="M68.41,129.31A1.36,1.36,0,1,1,67.05,128,1.36,1.36,0,0,1,68.41,129.31Z" style="fill:#fafafa"></path><path d="M87.7,132.58c-2.2-.89-4.45,1.19-3.26,2,.52.35,1.5.06,2.26.4,1,.41,1.44,1.27,2.2,1.09C89.93,135.82,89.9,133.48,87.7,132.58Z" style="fill:#b16668"></path><path d="M87.83,135.69a2.61,2.61,0,0,0-3.29-2.52c-.48.48-.61,1.05-.1,1.39s1.5.06,2.26.4A5.12,5.12,0,0,1,87.83,135.69Z" style="fill:#f28f8f"></path></g><path d="M69.85,143.05v1.64a136.13,136.13,0,0,0,9.54,11.89c6.33,7,11.73,12.28,13.67,17.11a51.2,51.2,0,0,1,2.69,10.85,27.07,27.07,0,0,0-9.38-13.88c-4.58-3.67-12-6.49-13.38-8.83s1.33-5.25,1.33-5.25a31.16,31.16,0,0,1-7.27-3.44c-2.76-2-2.82-6.32-2.82-6.32Z" style="fill:#263238"></path><path d="M84.85,145.27a29.56,29.56,0,0,1,7.77,14.37c1.17,6.21,1.69,20.34,1.69,20.34s1.64-9.54,2.54-13.59,1.36-7.18-3.06-11.34c1.09-1.89,1.28-2.6-1-5.35a20.83,20.83,0,0,0-4.3-4l-3.62-2.32Z" style="fill:#263238"></path><path d="M94.51,197.11c2.42-.25,4.74-2.48,7.85-3.66s5.76-1.22,7.89-2.08c.88.5.43,2.35-.62,3.15-1.62,1.25-4.1,2-3.52,2.69.88,1,4.23.3,5.24.09,3.13-.64,6.46-2.52,9.73-1.83a1.35,1.35,0,0,1,.89.49,1.12,1.12,0,0,1-.25,1.33,6.77,6.77,0,0,1-1.21.82,1.63,1.63,0,0,0-.82,1.15c0,.44.23.87.17,1.32a1.66,1.66,0,0,1-.38.76,5.37,5.37,0,0,1-1.16,1.07,8.77,8.77,0,0,0-1.07.73,10.91,10.91,0,0,0-1.9,1.88c-1.71,2.79-5.39,3.63-8.37,4.14-6.37,1.11-9.3-.23-13.06-.16s-19.76-.42-28-1c-8.61-.62-9.66-2.22-12.08-10.44a234.77,234.77,0,0,1-6.45-29.32c-1.36-10.32,0-15.64,10.21-18.87,2.86,1.95,6.41,9,8.13,22.69l3.69,20.62S92.09,197.35,94.51,197.11Z" style="fill:#ffbda7"></path><path d="M88.44,196.08l4,.87a33.78,33.78,0,0,0-.72,6.19,21.37,21.37,0,0,0,.58,5.86l-4.86.14S84.68,201.58,88.44,196.08Z" style="fill:#000000"></path><path d="M58.68,149c-4.59.9-8.81,2.19-11.17,5.91S46,162.66,47,170.37s6.29,27.78,7.63,32.06,2.13,5.25,6.7,6,27.94,1,27.94,1a18.65,18.65,0,0,1-.53-7,21.32,21.32,0,0,1,1.22-6.41l-20.21-3.67s-3.2-19.28-4.34-25.33S62.94,154.5,58.68,149Z" style="fill:#263238"></path><path d="M69.72,192.41c-2.78-.31-7.46,1.56-8.84,4.15.58-2.72,3.46-5.71,8.56-5.69Z"></path></g></g></g><g id="freepik--podium-2--inject-16"><g id="freepik--Podium--inject-16"><g id="freepik--podium--inject-16"><polygon points="352.62 428.57 352.63 416.69 293.29 382.43 293.28 394.31 352.62 428.57" style="fill:#37474f"></polygon><polygon points="352.63 416.69 411.97 382.43 411.97 394.31 352.63 428.57 352.63 416.69" style="fill:#263238"></polygon><polygon points="352.63 416.69 411.97 382.43 352.63 348.17 293.29 382.43 352.63 416.69" style="fill:#455a64"></polygon><polygon points="352.63 411.79 301.76 382.43 296.03 262.35 352.63 295.02 352.63 411.79" style="fill:#37474f"></polygon><polygon points="352.63 411.79 403.49 382.43 409.23 262.35 352.63 295.02 352.63 411.79" style="fill:#263238"></polygon><polygon points="352.63 295.02 352.63 287.32 290.88 251.67 290.88 259.37 352.63 295.02" style="fill:#37474f"></polygon><polygon points="352.63 287.32 414.37 251.67 414.37 259.37 352.63 295.02 352.63 287.32" style="fill:#263238"></polygon><polygon points="296.54 273.15 296.03 262.35 352.63 295.02 409.23 262.35 408.71 273.15 352.63 305.53 296.54 273.15" style="opacity:0.2"></polygon><polygon points="352.63 287.32 414.37 251.67 352.63 216.02 290.88 251.67 352.63 287.32" style="fill:#455a64"></polygon><polygon points="342.34 310.08 306.32 289.29 309.71 375.09 342.33 393.97 342.34 310.08" style="fill:#263238"></polygon><path d="M311.53,298.15,337.27,313v72.18l-22.54-13.05-3.2-74m-1.41-2.28,3.39,77,25,14.5V312.28l-28.42-16.41Z" style="fill:#455a64"></path></g><g id="freepik--Garland--inject-16"><path d="M352.63,287.32v9.2c0,3.93-6.18,8.22-6.18,8.22s-6.17-11.42-6.17-15.35v-9.2Z" style="fill:#000000"></path><path d="M352.63,287.32v9.2c0,3.93-6.18,8.22-6.18,8.22s-6.17-11.42-6.17-15.35v-9.2Z" style="fill:#fff;opacity:0.5"></path><path d="M340.28,280.19v9.2c0,3.93-6.18,8.22-6.18,8.22s-6.17-11.42-6.17-15.35v-9.2Z" style="fill:#000000"></path><path d="M327.93,273.06v9.2c0,3.93-6.18,8.22-6.18,8.22s-6.17-11.42-6.17-15.35v-9.2Z" style="fill:#000000"></path><path d="M327.93,273.06v9.2c0,3.93-6.18,8.22-6.18,8.22s-6.17-11.42-6.17-15.35v-9.2Z" style="fill:#fff;opacity:0.5"></path><path d="M315.58,265.93v9.2c0,3.93-6.17,8.22-6.17,8.22s-6.18-11.42-6.18-15.35v-9.2Z" style="fill:#000000"></path><path d="M303.23,258.8V268c0,3.93-6.17,8.22-6.17,8.22s-6.18-11.42-6.18-15.35v-9.2Z" style="fill:#000000"></path><path d="M303.23,258.8V268c0,3.93-6.17,8.22-6.17,8.22s-6.18-11.42-6.18-15.35v-9.2Z" style="fill:#fff;opacity:0.5"></path></g><g id="freepik--Microphone--inject-16"><path d="M303.47,248.56c0-1.39.92-2.78,2.76-3.84a14.7,14.7,0,0,1,13.33,0c1.84,1.06,2.76,2.45,2.76,3.84v1.55c0,1.39-.92,2.78-2.76,3.84a14.7,14.7,0,0,1-13.33,0c-1.84-1.06-2.76-2.45-2.76-3.84Z" style="fill:#000000"></path><path d="M303.47,248.56c0-1.39.92-2.78,2.76-3.84a14.7,14.7,0,0,1,13.33,0c1.84,1.06,2.76,2.45,2.76,3.84v1.55c0,1.39-.92,2.78-2.76,3.84a14.7,14.7,0,0,1-13.33,0c-1.84-1.06-2.76-2.45-2.76-3.84Z" style="opacity:0.2"></path><path d="M319.56,252.41a14.7,14.7,0,0,1-13.33,0c-1.84-1.06-2.76-2.45-2.76-3.85s.92-2.78,2.76-3.84a14.7,14.7,0,0,1,13.33,0c1.84,1.06,2.76,2.45,2.76,3.84S321.4,251.35,319.56,252.41Z" style="fill:#000000"></path><path d="M327.86,200.05a7.36,7.36,0,1,1,11.87,8.7l-4.81,6.56a7.36,7.36,0,0,1-11.87-8.7Z" style="fill:#37474f"></path><path d="M324.64,216.89a7.35,7.35,0,0,1-2.79-7.73c1.23.7,7.45,4.29,8.38,4.78s3.51-1.94,6.23-5.87,4.38-5.77,2.84-8.56a7.37,7.37,0,0,1,.43,9.24l-4.81,6.56A7.34,7.34,0,0,1,324.64,216.89Z" style="fill:#263238"></path><polygon points="327.69 213.98 321.63 222.26 324.75 228.56 330.82 220.28 327.69 213.98" style="fill:#000000"></polygon><polygon points="327.69 213.98 321.63 222.26 324.75 228.56 330.82 220.28 327.69 213.98" style="opacity:0.2"></polygon><polygon points="321.63 222.26 313.92 217.81 319.99 209.53 327.69 213.98 321.63 222.26" style="fill:#000000"></polygon><polygon points="324.75 228.56 317.04 224.1 313.92 217.81 321.63 222.26 324.75 228.56" style="fill:#000000"></polygon><polygon points="324.75 228.56 317.04 224.1 313.92 217.81 321.63 222.26 324.75 228.56" style="opacity:0.35000000000000003"></polygon><path d="M311.8,248.56c0,.7,2.19.7,2.19,0,0-8.23,0-17.56,5.81-24.57.47-.58-1.21-2-1.69-1.4C311.8,230.21,311.8,240.39,311.8,248.56Z" style="fill:#263238"></path></g><g id="freepik--Name--inject-16"><polygon points="356.87 277.2 361.1 274.75 331.43 257.62 327.19 260.07 356.87 277.2" style="fill:#e0e0e0"></polygon><polygon points="356.87 277.2 327.19 260.07 328.63 251.11 358.3 268.24 356.87 277.2" style="fill:#fafafa"></polygon><path d="M355.5,271.28l0,.21a.79.79,0,0,1-1.26.6l-18.72-10.8a1.91,1.91,0,0,1-.87-1.83l0-.22a.79.79,0,0,1,1.26-.6l18.73,10.81A2,2,0,0,1,355.5,271.28Z" style="fill:#e0e0e0"></path><path d="M333.79,258.73l0,.21a.79.79,0,0,1-1.26.6l-2.06-1.19a1.91,1.91,0,0,1-.87-1.83l0-.22a.79.79,0,0,1,1.26-.6l2.07,1.2A1.91,1.91,0,0,1,333.79,258.73Z" style="fill:#e0e0e0"></path></g></g></g><g id="freepik--podium-1--inject-16"><g id="freepik--podium--inject-16"><g id="freepik--podium--inject-16"><polygon points="149.52 428.57 149.52 416.69 208.86 382.43 208.86 394.31 149.52 428.57" style="fill:#37474f"></polygon><polygon points="149.52 416.69 90.18 382.43 90.18 394.31 149.52 428.57 149.52 416.69" style="fill:#263238"></polygon><polygon points="149.52 416.69 90.18 382.43 149.52 348.17 208.86 382.43 149.52 416.69" style="fill:#455a64"></polygon><polygon points="149.52 411.79 200.39 382.43 206.12 262.35 149.52 295.02 149.52 411.79" style="fill:#37474f"></polygon><polygon points="149.52 411.79 98.66 382.43 92.92 262.35 149.52 295.02 149.52 411.79" style="fill:#263238"></polygon><polygon points="149.52 295.02 149.52 287.32 211.27 251.67 211.27 259.37 149.52 295.02" style="fill:#37474f"></polygon><polygon points="149.52 287.32 87.78 251.67 87.78 259.37 149.52 295.02 149.52 287.32" style="fill:#263238"></polygon><polygon points="205.61 273.15 206.12 262.35 149.52 295.02 92.92 262.35 93.44 273.15 149.52 305.53 205.61 273.15" style="opacity:0.2"></polygon><polygon points="149.52 287.32 87.78 251.67 149.52 216.02 211.27 251.67 149.52 287.32" style="fill:#455a64"></polygon><polygon points="159.81 310.08 195.83 289.29 192.44 375.09 159.81 393.97 159.81 310.08" style="fill:#263238"></polygon><path d="M190.61,298.15l-3.19,74-22.54,13.06V313l25.73-14.86m1.42-2.28-28.42,16.41v75.11l25-14.5,3.39-77Z" style="fill:#455a64"></path></g><g id="freepik--garland--inject-16"><path d="M149.52,287.32v9.2c0,3.93,2.76,5.53,6.18,3.56a13.65,13.65,0,0,0,6.17-10.69v-9.2Z" style="fill:#000000"></path><path d="M161.87,280.19v9.2c0,3.93,2.76,5.53,6.17,3.56a13.66,13.66,0,0,0,6.18-10.69v-9.2Z" style="fill:#000000"></path><path d="M161.87,280.19v9.2c0,3.93,2.76,5.53,6.17,3.56a13.66,13.66,0,0,0,6.18-10.69v-9.2Z" style="opacity:0.25"></path><path d="M174.22,273.06v9.2c0,3.93,2.76,5.53,6.17,3.56a13.66,13.66,0,0,0,6.18-10.69v-9.2Z" style="fill:#000000"></path><path d="M186.57,265.93v9.2c0,3.93,2.76,5.53,6.17,3.56A13.66,13.66,0,0,0,198.92,268v-9.2Z" style="fill:#000000"></path><path d="M186.57,265.93v9.2c0,3.93,2.76,5.53,6.17,3.56A13.66,13.66,0,0,0,198.92,268v-9.2Z" style="opacity:0.25"></path><path d="M198.92,258.8V268c0,3.93,2.76,5.53,6.17,3.56a13.66,13.66,0,0,0,6.18-10.69v-9.2Z" style="fill:#000000"></path></g><g id="freepik--microphone--inject-16"><path d="M198.68,248.56c0-1.39-.92-2.78-2.76-3.84a14.7,14.7,0,0,0-13.33,0c-1.84,1.06-2.76,2.45-2.76,3.84v1.55c0,1.39.92,2.78,2.76,3.84a14.7,14.7,0,0,0,13.33,0c1.84-1.06,2.76-2.45,2.76-3.84Z" style="fill:#000000"></path><path d="M198.68,248.56c0-1.39-.92-2.78-2.76-3.84a14.7,14.7,0,0,0-13.33,0c-1.84,1.06-2.76,2.45-2.76,3.84v1.55c0,1.39.92,2.78,2.76,3.84a14.7,14.7,0,0,0,13.33,0c1.84-1.06,2.76-2.45,2.76-3.84Z" style="opacity:0.2"></path><path d="M182.59,252.41a14.7,14.7,0,0,0,13.33,0c1.84-1.06,2.76-2.45,2.76-3.85s-.92-2.78-2.76-3.84a14.7,14.7,0,0,0-13.33,0c-1.84,1.06-2.76,2.45-2.76,3.84S180.75,251.35,182.59,252.41Z" style="fill:#000000"></path><path d="M174.29,200.05a7.36,7.36,0,1,0-11.87,8.7l4.81,6.56a7.36,7.36,0,0,0,11.87-8.7Z" style="fill:#37474f"></path><path d="M177.51,216.89a7.35,7.35,0,0,0,2.79-7.73c-1.23.7-7.45,4.29-8.38,4.78s-3.51-1.94-6.24-5.88-4.37-5.76-2.83-8.55a7.36,7.36,0,0,0-.43,9.24l4.81,6.56A7.34,7.34,0,0,0,177.51,216.89Z" style="fill:#263238"></path><polygon points="174.46 213.98 180.52 222.26 177.4 228.55 171.33 220.28 174.46 213.98" style="fill:#000000"></polygon><polygon points="174.46 213.98 180.52 222.26 177.4 228.55 171.33 220.28 174.46 213.98" style="opacity:0.2"></polygon><polygon points="180.52 222.26 188.23 217.81 182.16 209.53 174.46 213.98 180.52 222.26" style="fill:#000000"></polygon><polygon points="177.4 228.55 185.1 224.1 188.23 217.81 180.52 222.26 177.4 228.55" style="fill:#000000"></polygon><polygon points="177.4 228.55 185.1 224.1 188.23 217.81 180.52 222.26 177.4 228.55" style="opacity:0.35000000000000003"></polygon><path d="M190.35,248.56c0,.69-2.19.69-2.19,0,0-8.23,0-17.56-5.81-24.57-.47-.58,1.21-2,1.69-1.4C190.35,230.21,190.35,240.39,190.35,248.56Z" style="fill:#263238"></path></g><g id="freepik--name--inject-16"><polygon points="145.28 277.2 141.04 274.75 170.72 257.62 174.95 260.07 145.28 277.2" style="fill:#e0e0e0"></polygon><polygon points="145.28 277.2 174.95 260.07 173.52 251.11 143.85 268.24 145.28 277.2" style="fill:#fafafa"></polygon><path d="M151.7,268.36l0,.21a.79.79,0,0,0,1.26.6l18.72-10.8a1.91,1.91,0,0,0,.87-1.83l0-.22a.79.79,0,0,0-1.26-.6l-18.73,10.81A2,2,0,0,0,151.7,268.36Z" style="fill:#e0e0e0"></path><path d="M146.65,271.28l0,.21a.79.79,0,0,0,1.26.6L150,270.9a1.91,1.91,0,0,0,.87-1.83l0-.22a.78.78,0,0,0-1.25-.6l-2.08,1.2A1.91,1.91,0,0,0,146.65,271.28Z" style="fill:#e0e0e0"></path></g></g></g><g id="freepik--speech-bubbles--inject-16"><g id="freepik--speech-bubble--inject-16"><g id="freepik--speech-bubble--inject-16"><path d="M166,67.35,126.45,90.19a2.42,2.42,0,0,0-1.1,1.9v35a2.4,2.4,0,0,0,1.1,1.9l3.94,2.2a2.44,2.44,0,0,0,2.2,0l39.52-22.84a2.42,2.42,0,0,0,1.1-1.9v-35a2.4,2.4,0,0,0-1.1-1.9l-3.94-2.2A2.44,2.44,0,0,0,166,67.35Z" style="fill:#000000"></path><path d="M131.49,130.53v-35a2.42,2.42,0,0,1,1.1-1.9L172.11,70.8c.61-.35,1.1-.07,1.1.64v35a2.42,2.42,0,0,1-1.1,1.9l-39.52,22.84C132,131.51,131.49,131.23,131.49,130.53Z" style="fill:#000000"></path><path d="M132.59,131.16a2.53,2.53,0,0,1-2.2,0L126.45,129a2.37,2.37,0,0,1-1.1-1.88v-35A2.19,2.19,0,0,1,125.7,91l6.12,3.49a2.12,2.12,0,0,0-.33,1.08v35C131.49,131.17,131.94,131.54,132.59,131.16Z" style="opacity:0.2"></path><path d="M173.2,71.24c-.09-.56-.54-.75-1.09-.44L132.59,93.64a2.26,2.26,0,0,0-.77.82L125.69,91a2.19,2.19,0,0,1,.76-.78L166,67.35a2.44,2.44,0,0,1,2.2,0l3.94,2.2A2.46,2.46,0,0,1,173.2,71.24Z" style="fill:#fff;opacity:0.25"></path><path d="M125.35,99.05l-7.58,8.4a1,1,0,0,0,.17,1.5c.18.12,6.12,3.52,6.12,3.52l7.43-9.88Z" style="fill:#000000"></path><path d="M125.35,99.05l-7.58,8.4a1,1,0,0,0,.17,1.5c.18.12,6.12,3.52,6.12,3.52l7.43-9.88Z" style="fill:#fff;opacity:0.25"></path><path d="M131.49,102.59l-7.57,8.4a1,1,0,0,0,.83,1.65l6.74-.57C132.35,112.07,132.35,102.59,131.49,102.59Z" style="fill:#000000"></path></g><path d="M146.3,113v3.6a2.48,2.48,0,0,1-1.53,2.13l-.81.46c-1.06.62-1.52.45-1.52-.37v-3.59a2.48,2.48,0,0,1,1.52-2.13l.81-.47C145.84,112.06,146.3,112.22,146.3,113Zm.78-22c-.43,5.71-.84,11.42-1.27,17.14a2.13,2.13,0,0,1-1.29,2l-.28.16c-1,.6-1.29.32-1.29-.5V93.57a2.46,2.46,0,0,1,1.52-2.13l1.09-.63C146.55,90.24,147.08,90.32,147.08,91Z" style="fill:#fafafa"></path><path d="M154.39,108.37V112a2.47,2.47,0,0,1-1.52,2.13l-.81.47c-1.07.62-1.53.45-1.53-.37V110.6a2.47,2.47,0,0,1,1.53-2.13l.81-.47C153.93,107.38,154.39,107.55,154.39,108.37Zm.79-22c-.43,5.72-.84,11.42-1.27,17.14a2.14,2.14,0,0,1-1.3,2l-.27.16c-1.05.6-1.3.32-1.3-.5V88.9a2.47,2.47,0,0,1,1.52-2.13l1.1-.63C154.64,85.57,155.18,85.65,155.18,86.35Z" style="fill:#fafafa"></path><path d="M162.49,103.7v3.59a2.48,2.48,0,0,1-1.53,2.13l-.81.47c-1.07.61-1.52.45-1.52-.37v-3.6a2.46,2.46,0,0,1,1.52-2.13l.81-.46C162,102.71,162.49,102.88,162.49,103.7Zm.78-22c-.43,5.72-.84,11.42-1.27,17.14a2.14,2.14,0,0,1-1.29,2l-.28.16c-1,.6-1.29.31-1.29-.51V84.22a2.46,2.46,0,0,1,1.52-2.13l1.09-.62C162.74,80.89,163.27,81,163.27,81.68Z" style="fill:#fafafa"></path></g><g id="freepik--speech-bubble--inject-16"><g id="freepik--speech-bubble--inject-16"><path d="M339.17,67.35,378.7,90.19a2.44,2.44,0,0,1,1.1,1.9v35a2.41,2.41,0,0,1-1.11,1.9l-3.93,2.2a2.46,2.46,0,0,1-2.21,0L333,108.32a2.42,2.42,0,0,1-1.1-1.9v-35a2.41,2.41,0,0,1,1.11-1.9l3.93-2.2A2.44,2.44,0,0,1,339.17,67.35Z" style="fill:#000000"></path><path d="M373.65,130.53v-35a2.42,2.42,0,0,0-1.1-1.9L333,70.8c-.61-.35-1.1-.07-1.1.64v35a2.42,2.42,0,0,0,1.1,1.9l39.52,22.84C373.16,131.51,373.65,131.23,373.65,130.53Z" style="fill:#000000"></path><path d="M372.55,131.16a2.56,2.56,0,0,0,2.21,0l3.93-2.22a2.38,2.38,0,0,0,1.11-1.88v-35a2.29,2.29,0,0,0-.35-1.12l-6.12,3.49a2.21,2.21,0,0,1,.32,1.08v35C373.65,131.17,373.2,131.54,372.55,131.16Z" style="opacity:0.2"></path><path d="M332,71.24c.08-.56.53-.75,1.08-.44l39.52,22.84a2.37,2.37,0,0,1,.78.82L379.45,91a2.25,2.25,0,0,0-.75-.78L339.17,67.35a2.44,2.44,0,0,0-2.2,0L333,69.54A2.39,2.39,0,0,0,332,71.24Z" style="fill:#fff;opacity:0.25"></path><path d="M379.8,99.05l7.57,8.4a1,1,0,0,1-.17,1.5c-.18.12-6.12,3.52-6.12,3.52l-7.43-9.88Z" style="fill:#000000"></path><path d="M379.8,99.05l7.57,8.4a1,1,0,0,1-.17,1.5c-.18.12-6.12,3.52-6.12,3.52l-7.43-9.88Z" style="fill:#fff;opacity:0.25"></path><path d="M373.65,102.59l7.57,8.4a1,1,0,0,1-.83,1.65l-6.74-.57C372.79,112.07,372.79,102.59,373.65,102.59Z" style="fill:#000000"></path></g><path d="M344.51,105.92v3.59c0,.82-.46,1-1.53.37l-.81-.47a2.47,2.47,0,0,1-1.52-2.13v-3.59c0-.82.46-1,1.52-.37l.81.47A2.47,2.47,0,0,1,344.51,105.92Zm.78-21.11c-.43,5.22-.84,10.45-1.27,15.67-.07.78-.25,1.11-1.29.5l-.28-.16a2.05,2.05,0,0,1-1.29-2V82.58c0-.82.45-1,1.52-.37l1.09.63C344.76,83.41,345.29,84.1,345.29,84.81Z" style="fill:#fafafa"></path><path d="M358,97.74c0,6-4.26,4.77-4.72,8.25-.15.74-.5.77-1.34.28l-.58-.33a2,2,0,0,1-1.25-1.85,7.21,7.21,0,0,1,1.73-4.79c1.06-1.3,2.21-2.16,2.21-3.45a3.58,3.58,0,0,0-1.88-3.27c-1.47-.85-2.49-.23-2.84-.43-.71-.41-1.6-3.31-1.6-4.13,0-2.3,2.79-1.55,4.77-.41A11.56,11.56,0,0,1,358,97.74Zm-4.44,13.38v3.59c0,.82-.45,1-1.52.37l-.81-.47a2.45,2.45,0,0,1-1.52-2.13v-3.59c0-.82.45-1,1.52-.37l.81.47A2.45,2.45,0,0,1,353.51,111.12Z" style="fill:#fafafa"></path><path d="M364.53,117.47v3.6c0,.82-.46,1-1.53.37l-.81-.47a2.47,2.47,0,0,1-1.52-2.13v-3.59c0-.82.46-1,1.52-.37l.81.47A2.45,2.45,0,0,1,364.53,117.47Zm.78-21.1c-.43,5.22-.83,10.45-1.27,15.67-.07.78-.25,1.1-1.29.5l-.28-.16a2.05,2.05,0,0,1-1.29-2V94.14c0-.83.45-1,1.52-.38l1.09.63C364.78,95,365.31,95.66,365.31,96.37Z" style="fill:#fafafa"></path></g></g></svg>