<?xml version="1.0" encoding="UTF-8"?>
<svg xmlns="http://www.w3.org/2000/svg" xmlns:xlink="http://www.w3.org/1999/xlink" width="198.43" height="198.43" viewBox="0 0 198.43 198.43">
<path fill="none" stroke-width="0.3985" stroke-linecap="butt" stroke-linejoin="miter" stroke="rgb(0%, 0%, 0%)" stroke-opacity="1" stroke-miterlimit="10" d="M 0.00065625 -0.00121875 L 141.274094 -0.00121875 " transform="matrix(1, 0, 0, -1, 28.347, 167.448)"/>
<path fill="none" stroke-width="0.31879" stroke-linecap="round" stroke-linejoin="round" stroke="rgb(0%, 0%, 0%)" stroke-opacity="1" stroke-miterlimit="10" d="M -1.196979 1.592531 C -1.095416 0.994875 -0.00166625 0.100344 0.299115 -0.00121875 C -0.00166625 -0.098875 -1.095416 -0.997312 -1.196979 -1.594969 " transform="matrix(1, 0, 0, -1, 169.62276, 167.448)"/>
<path fill="none" stroke-width="0.3985" stroke-linecap="butt" stroke-linejoin="miter" stroke="rgb(0%, 0%, 0%)" stroke-opacity="1" stroke-miterlimit="10" d="M 0.00065625 -0.00121875 L 0.00065625 141.276125 " transform="matrix(1, 0, 0, -1, 28.347, 167.448)"/>
<path fill="none" stroke-width="0.31879" stroke-linecap="round" stroke-linejoin="round" stroke="rgb(0%, 0%, 0%)" stroke-opacity="1" stroke-miterlimit="10" d="M -1.194947 1.593094 C -1.097291 0.995438 0.000365 0.100906 0.29724 -0.00065625 C 0.000365 -0.0983125 -1.097291 -0.99675 -1.194947 -1.594406 " transform="matrix(0, -1, -1, 0, 28.347, 26.17224)"/>
</svg>
