<?xml version="1.0" encoding="UTF-8"?>
<svg xmlns="http://www.w3.org/2000/svg" xmlns:xlink="http://www.w3.org/1999/xlink" width="99.21" height="99.21" viewBox="0 0 99.21 99.21">
<path fill-rule="nonzero" fill="rgb(0%, 0%, 0%)" fill-opacity="1" d="M 23.253906 72.855469 C 23.253906 71.753906 22.359375 70.863281 21.261719 70.863281 C 20.160156 70.863281 19.265625 71.753906 19.265625 72.855469 C 19.265625 73.957031 20.160156 74.847656 21.261719 74.847656 C 22.359375 74.847656 23.253906 73.957031 23.253906 72.855469 Z M 23.253906 72.855469 "/>
<path fill-rule="nonzero" fill="rgb(0%, 0%, 0%)" fill-opacity="1" d="M 23.253906 44.507812 C 23.253906 43.410156 22.359375 42.515625 21.261719 42.515625 C 20.160156 42.515625 19.265625 43.410156 19.265625 44.507812 C 19.265625 45.609375 20.160156 46.5 21.261719 46.5 C 22.359375 46.5 23.253906 45.609375 23.253906 44.507812 Z M 23.253906 44.507812 "/>
<path fill-rule="nonzero" fill="rgb(0%, 0%, 0%)" fill-opacity="1" d="M 23.253906 16.164062 C 23.253906 15.0625 22.359375 14.167969 21.261719 14.167969 C 20.160156 14.167969 19.265625 15.0625 19.265625 16.164062 C 19.265625 17.261719 20.160156 18.15625 21.261719 18.15625 C 22.359375 18.15625 23.253906 17.261719 23.253906 16.164062 Z M 23.253906 16.164062 "/>
<path fill-rule="nonzero" fill="rgb(0%, 0%, 0%)" fill-opacity="1" d="M 51.597656 72.855469 C 51.597656 71.753906 50.707031 70.863281 49.605469 70.863281 C 48.507812 70.863281 47.613281 71.753906 47.613281 72.855469 C 47.613281 73.957031 48.507812 74.847656 49.605469 74.847656 C 50.707031 74.847656 51.597656 73.957031 51.597656 72.855469 Z M 51.597656 72.855469 "/>
<path fill-rule="nonzero" fill="rgb(0%, 0%, 0%)" fill-opacity="1" d="M 51.597656 44.507812 C 51.597656 43.410156 50.707031 42.515625 49.605469 42.515625 C 48.507812 42.515625 47.613281 43.410156 47.613281 44.507812 C 47.613281 45.609375 48.507812 46.5 49.605469 46.5 C 50.707031 46.5 51.597656 45.609375 51.597656 44.507812 Z M 51.597656 44.507812 "/>
<path fill-rule="nonzero" fill="rgb(0%, 0%, 0%)" fill-opacity="1" d="M 51.597656 16.164062 C 51.597656 15.0625 50.707031 14.167969 49.605469 14.167969 C 48.507812 14.167969 47.613281 15.0625 47.613281 16.164062 C 47.613281 17.261719 48.507812 18.15625 49.605469 18.15625 C 50.707031 18.15625 51.597656 17.261719 51.597656 16.164062 Z M 51.597656 16.164062 "/>
<path fill-rule="nonzero" fill="rgb(0%, 0%, 0%)" fill-opacity="1" d="M 79.945312 72.855469 C 79.945312 71.753906 79.054688 70.863281 77.953125 70.863281 C 76.851562 70.863281 75.960938 71.753906 75.960938 72.855469 C 75.960938 73.957031 76.851562 74.847656 77.953125 74.847656 C 79.054688 74.847656 79.945312 73.957031 79.945312 72.855469 Z M 79.945312 72.855469 "/>
<path fill-rule="nonzero" fill="rgb(0%, 0%, 0%)" fill-opacity="1" d="M 79.945312 44.507812 C 79.945312 43.410156 79.054688 42.515625 77.953125 42.515625 C 76.851562 42.515625 75.960938 43.410156 75.960938 44.507812 C 75.960938 45.609375 76.851562 46.5 77.953125 46.5 C 79.054688 46.5 79.945312 45.609375 79.945312 44.507812 Z M 79.945312 44.507812 "/>
<path fill-rule="nonzero" fill="rgb(0%, 0%, 0%)" fill-opacity="1" d="M 79.945312 16.164062 C 79.945312 15.0625 79.054688 14.167969 77.953125 14.167969 C 76.851562 14.167969 75.960938 15.0625 75.960938 16.164062 C 75.960938 17.261719 76.851562 18.15625 77.953125 18.15625 C 79.054688 18.15625 79.945312 17.261719 79.945312 16.164062 Z M 79.945312 16.164062 "/>
</svg>
