<?xml version="1.0" encoding="UTF-8"?>
<svg xmlns="http://www.w3.org/2000/svg" xmlns:xlink="http://www.w3.org/1999/xlink" width="141.73" height="42.52" viewBox="0 0 141.73 42.52">
<path fill-rule="nonzero" fill="rgb(0%, 0%, 0%)" fill-opacity="1" d="M 16.164062 23.140625 C 16.164062 22.589844 15.71875 22.144531 15.167969 22.144531 C 14.617188 22.144531 14.171875 22.589844 14.171875 23.140625 C 14.171875 23.691406 14.617188 24.136719 15.167969 24.136719 C 15.71875 24.136719 16.164062 23.691406 16.164062 23.140625 Z M 16.164062 23.140625 "/>
<path fill-rule="nonzero" fill="rgb(0%, 0%, 0%)" fill-opacity="1" d="M 44.511719 23.140625 C 44.511719 22.589844 44.066406 22.144531 43.515625 22.144531 C 42.964844 22.144531 42.519531 22.589844 42.519531 23.140625 C 42.519531 23.691406 42.964844 24.136719 43.515625 24.136719 C 44.066406 24.136719 44.511719 23.691406 44.511719 23.140625 Z M 44.511719 23.140625 "/>
<path fill-rule="nonzero" fill="rgb(0%, 0%, 0%)" fill-opacity="1" d="M 72.859375 23.140625 C 72.859375 22.589844 72.414062 22.144531 71.863281 22.144531 C 71.3125 22.144531 70.867188 22.589844 70.867188 23.140625 C 70.867188 23.691406 71.3125 24.136719 71.863281 24.136719 C 72.414062 24.136719 72.859375 23.691406 72.859375 23.140625 Z M 72.859375 23.140625 "/>
<path fill-rule="nonzero" fill="rgb(0%, 0%, 0%)" fill-opacity="1" d="M 101.207031 23.140625 C 101.207031 22.589844 100.757812 22.144531 100.210938 22.144531 C 99.660156 22.144531 99.214844 22.589844 99.214844 23.140625 C 99.214844 23.691406 99.660156 24.136719 100.210938 24.136719 C 100.757812 24.136719 101.207031 23.691406 101.207031 23.140625 Z M 101.207031 23.140625 "/>
<path fill-rule="nonzero" fill="rgb(0%, 0%, 0%)" fill-opacity="1" d="M 129.550781 23.140625 C 129.550781 22.589844 129.105469 22.144531 128.554688 22.144531 C 128.007812 22.144531 127.558594 22.589844 127.558594 23.140625 C 127.558594 23.691406 128.007812 24.136719 128.554688 24.136719 C 129.105469 24.136719 129.550781 23.691406 129.550781 23.140625 Z M 129.550781 23.140625 "/>
</svg>
