<?xml version="1.0" encoding="UTF-8"?>
<svg xmlns="http://www.w3.org/2000/svg" xmlns:xlink="http://www.w3.org/1999/xlink" width="141.73" height="155.91" viewBox="0 0 141.73 155.91">
<path fill-rule="nonzero" fill="rgb(79.998779%, 79.998779%, 100%)" fill-opacity="1" stroke-width="0.3985" stroke-linecap="butt" stroke-linejoin="miter" stroke="rgb(0%, 0%, 0%)" stroke-opacity="1" stroke-miterlimit="10" d="M -0.00090625 -0.00159375 L -0.00090625 113.389031 L 113.385813 113.389031 L 113.385813 -0.00159375 Z M -0.00090625 -0.00159375 " transform="matrix(1, 0, 0, -1, 14.372, 133.432)"/>
<path fill-rule="nonzero" fill="rgb(79.998779%, 100%, 79.998779%)" fill-opacity="1" stroke-width="0.3985" stroke-linecap="butt" stroke-linejoin="miter" stroke="rgb(0%, 0%, 0%)" stroke-opacity="1" stroke-miterlimit="10" d="M 28.34675 28.346062 L 28.34675 85.041375 L 85.042063 85.041375 L 85.042063 28.346062 Z M 28.34675 28.346062 " transform="matrix(1, 0, 0, -1, 14.372, 133.432)"/>
<path fill-rule="nonzero" fill="rgb(100%, 79.998779%, 79.998779%)" fill-opacity="1" stroke-width="0.3985" stroke-linecap="butt" stroke-linejoin="miter" stroke="rgb(0%, 0%, 0%)" stroke-opacity="1" stroke-miterlimit="10" d="M 85.042063 56.693719 C 85.042063 72.349969 72.350656 85.041375 56.694406 85.041375 C 41.038156 85.041375 28.34675 72.349969 28.34675 56.693719 C 28.34675 41.037469 41.038156 28.346062 56.694406 28.346062 C 72.350656 28.346062 85.042063 41.037469 85.042063 56.693719 Z M 85.042063 56.693719 " transform="matrix(1, 0, 0, -1, 14.372, 133.432)"/>
</svg>
