<?xml version="1.0" encoding="UTF-8"?>
<svg xmlns="http://www.w3.org/2000/svg" xmlns:xlink="http://www.w3.org/1999/xlink" width="283.46" height="226.77" viewBox="0 0 283.46 226.77">
<path fill="none" stroke-width="0.3985" stroke-linecap="butt" stroke-linejoin="miter" stroke="rgb(0%, 0%, 0%)" stroke-opacity="1" stroke-miterlimit="10" d="M 0.0011875 141.277125 L 0.0011875 -0.00021875 L 141.274625 -0.00021875 " transform="matrix(1, 0, 0, -1, 70.866, 184.449)"/>
<path fill="none" stroke-width="0.31879" stroke-linecap="round" stroke-linejoin="round" stroke="rgb(0%, 0%, 0%)" stroke-opacity="1" stroke-miterlimit="10" d="M -1.193947 1.592562 C -1.096291 0.994906 0.001365 0.100375 0.29824 -0.0011875 C 0.001365 -0.0988438 -1.096291 -0.997281 -1.193947 -1.594938 " transform="matrix(0, -1, -1, 0, 70.866, 43.17324)"/>
<path fill="none" stroke-width="0.31879" stroke-linecap="round" stroke-linejoin="round" stroke="rgb(0%, 0%, 0%)" stroke-opacity="1" stroke-miterlimit="10" d="M -1.196447 1.593531 C -1.094885 0.995875 -0.001135 0.101344 0.299646 -0.00021875 C -0.001135 -0.097875 -1.094885 -0.996312 -1.196447 -1.593969 " transform="matrix(1, 0, 0, -1, 212.14176, 184.449)"/>
<path fill-rule="nonzero" fill="rgb(0%, 0%, 0%)" fill-opacity="1" stroke-width="0.3985" stroke-linecap="butt" stroke-linejoin="miter" stroke="rgb(0%, 0%, 0%)" stroke-opacity="1" stroke-miterlimit="10" d="M 57.688688 85.038844 C 57.688688 85.589625 57.243375 86.034938 56.692594 86.034938 C 56.141813 86.034938 55.6965 85.589625 55.6965 85.038844 C 55.6965 84.491969 56.141813 84.04275 56.692594 84.04275 C 57.243375 84.04275 57.688688 84.491969 57.688688 85.038844 Z M 57.688688 85.038844 " transform="matrix(1, 0, 0, -1, 70.866, 184.449)"/>
</svg>
