<?xml version="1.0" encoding="UTF-8"?>
<svg xmlns="http://www.w3.org/2000/svg" xmlns:xlink="http://www.w3.org/1999/xlink" width="283.46" height="283.46" viewBox="0 0 283.46 283.46">
<path fill="none" stroke-width="0.3985" stroke-linecap="butt" stroke-linejoin="miter" stroke="rgb(0%, 0%, 0%)" stroke-opacity="1" stroke-miterlimit="10" d="M -0.00046875 -0.001625 L 198.429219 -0.001625 M -0.00046875 28.346031 L 198.429219 28.346031 M -0.00046875 56.693687 L 198.429219 56.693687 M -0.00046875 85.041344 L 198.429219 85.041344 M -0.00046875 113.389 L 198.429219 113.389 M -0.00046875 141.73275 L 198.429219 141.73275 M -0.00046875 170.080406 L 198.429219 170.080406 M -0.00046875 198.416344 L 198.429219 198.416344 M -0.00046875 -0.001625 L -0.00046875 198.428062 M 28.347187 -0.001625 L 28.347187 198.428062 M 56.694844 -0.001625 L 56.694844 198.428062 M 85.038594 -0.001625 L 85.038594 198.428062 M 113.38625 -0.001625 L 113.38625 198.428062 M 141.733906 -0.001625 L 141.733906 198.428062 M 170.081562 -0.001625 L 170.081562 198.428062 M 198.4175 -0.001625 L 198.4175 198.428062 " transform="matrix(1, 0, 0, -1, 42.52, 241.139)"/>
</svg>
