<?xml version="1.0" encoding="UTF-8"?>
<svg xmlns="http://www.w3.org/2000/svg" xmlns:xlink="http://www.w3.org/1999/xlink" width="70.87" height="70.87" viewBox="0 0 70.87 70.87">
<path fill-rule="evenodd" fill="rgb(50%, 50%, 50%)" fill-opacity="0.5" d="M 44.867188 33.53125 C 44.867188 25.703125 38.519531 19.359375 30.691406 19.359375 C 22.863281 19.359375 16.519531 25.703125 16.519531 33.53125 C 16.519531 41.359375 22.863281 47.707031 30.691406 47.707031 C 38.519531 47.707031 44.867188 41.359375 44.867188 33.53125 Z M 59.039062 33.53125 C 59.039062 25.703125 52.695312 19.359375 44.867188 19.359375 C 37.039062 19.359375 30.691406 25.703125 30.691406 33.53125 C 30.691406 41.359375 37.039062 47.707031 44.867188 47.707031 C 52.695312 47.707031 59.039062 41.359375 59.039062 33.53125 Z M 59.039062 33.53125 "/>
<path fill-rule="evenodd" fill="rgb(100%, 100%, 100%)" fill-opacity="1" stroke-width="0.3985" stroke-linecap="butt" stroke-linejoin="miter" stroke="rgb(0%, 0%, 0%)" stroke-opacity="1" stroke-miterlimit="10" d="M 14.17275 -0.00171875 C 14.17275 7.826406 7.829 14.174062 0.000875 14.174062 C -7.82725 14.174062 -14.174906 7.826406 -14.174906 -0.00171875 C -14.174906 -7.825938 -7.82725 -14.173594 0.000875 -14.173594 C 7.829 -14.173594 14.17275 -7.825938 14.17275 -0.00171875 Z M 28.348531 -0.00171875 C 28.348531 7.826406 22.000875 14.174062 14.17275 14.174062 C 6.344625 14.174062 0.000875 7.826406 0.000875 -0.00171875 C 0.000875 -7.825938 6.344625 -14.173594 14.17275 -14.173594 C 22.000875 -14.173594 28.348531 -7.825938 28.348531 -0.00171875 Z M 28.348531 -0.00171875 " transform="matrix(1, 0, 0, -1, 28.546, 31.385)"/>
</svg>
