<svg width="1508" height="1499" xmlns="http://www.w3.org/2000/svg" xmlns:xlink="http://www.w3.org/1999/xlink" xml:space="preserve" overflow="hidden"><g transform="translate(-114 -444)"><g><path d="M443.684 1174.18C576.913 1348.92 738.254 1817.55 927.708 1907.36 1117.16 1997.18 1490.57 1895.14 1580.41 1713.07 1670.25 1530.99 1593.85 988.441 1466.74 814.921 1339.62 641.402 982.711 729.995 817.703 671.951 652.694 613.908 573.857 493.544 476.685 466.661 379.514 439.777 292.732 445.276 234.673 510.651 176.615 576.027 94.7218 748.324 128.334 858.912 161.947 969.5 310.455 999.439 443.684 1174.18Z" stroke="#000000" stroke-width="4.58333" stroke-linecap="butt" stroke-linejoin="miter" stroke-miterlimit="8" stroke-opacity="1" fill="none" fill-rule="evenodd"/><path d="M1236.5 804C1236.5 763.959 1270.3 731.5 1312 731.5 1353.7 731.5 1387.5 763.959 1387.5 804 1387.5 844.041 1353.7 876.5 1312 876.5 1270.3 876.5 1236.5 844.041 1236.5 804Z" stroke="#000000" stroke-width="4.58333" stroke-linecap="square" stroke-linejoin="miter" stroke-miterlimit="8" stroke-dasharray="13.75 4.58333" stroke-opacity="1" fill="none" fill-rule="evenodd"/><path d="M0 8.5001C-2.03703e-15 3.80562 3.58176-1.08218e-15 8.00008-1.08218e-15 12.4184-2.16435e-15 16.0002 3.80562 16.0002 8.5001 16.0002 13.1946 12.4184 17.0002 8.00008 17.0002 3.58176 17.0002-4.07407e-15 13.1946 0 8.5001Z" stroke="#000000" stroke-width="4.58333" stroke-linecap="butt" stroke-linejoin="miter" stroke-miterlimit="8" stroke-opacity="1" fill="#000000" fill-rule="evenodd" fill-opacity="1" transform="matrix(-1 0 0 1 1319.5 795.5)"/><path d="M1319 804 1386.19 804" stroke="#000000" stroke-width="2.29167" stroke-linecap="butt" stroke-linejoin="miter" stroke-miterlimit="8" stroke-opacity="1" fill="none" fill-rule="evenodd"/><text fill="#000000" fill-opacity="1" font-family="Cambria Math,Cambria Math_MSFontService,sans-serif" font-style="normal" font-variant="normal" font-weight="400" font-stretch="normal" font-size="41" text-anchor="start" direction="ltr" writing-mode="lr-tb" unicode-bidi="normal" text-decoration="none" transform="matrix(1 0 0 1 1340.44 793)">𝜀</text><text fill="#000000" fill-opacity="1" font-family="Cambria Math,Cambria Math_MSFontService,sans-serif" font-style="normal" font-variant="normal" font-weight="400" font-stretch="normal" font-size="41" text-anchor="start" direction="ltr" writing-mode="lr-tb" unicode-bidi="normal" text-decoration="none" transform="matrix(1 0 0 1 1299.49 843)">𝑥</text><path d="M836.5 1803.5C836.5 1785.83 851.722 1771.5 870.5 1771.5 889.278 1771.5 904.5 1785.83 904.5 1803.5 904.5 1821.17 889.278 1835.5 870.5 1835.5 851.722 1835.5 836.5 1821.17 836.5 1803.5Z" stroke="#000000" stroke-width="4.58333" stroke-linecap="square" stroke-linejoin="miter" stroke-miterlimit="8" stroke-dasharray="13.75 4.58333" stroke-opacity="1" fill="none" fill-rule="evenodd"/><path d="M0 8.5001C-2.03703e-15 3.80562 3.58176-1.08218e-15 8.00008-1.08218e-15 12.4184-2.16435e-15 16.0002 3.80562 16.0002 8.5001 16.0002 13.1946 12.4184 17.0002 8.00008 17.0002 3.58176 17.0002-4.07407e-15 13.1946 0 8.5001Z" stroke="#000000" stroke-width="4.58333" stroke-linecap="butt" stroke-linejoin="miter" stroke-miterlimit="8" stroke-opacity="1" fill="#000000" fill-rule="evenodd" fill-opacity="1" transform="matrix(-1 0 0 1 878.5 1796.5)"/><path d="M434.5 1003.5C434.5 893.595 527.625 804.5 642.5 804.5 757.375 804.5 850.5 893.595 850.5 1003.5 850.5 1113.4 757.375 1202.5 642.5 1202.5 527.625 1202.5 434.5 1113.4 434.5 1003.5Z" stroke="#000000" stroke-width="4.58333" stroke-linecap="square" stroke-linejoin="miter" stroke-miterlimit="8" stroke-dasharray="13.75 4.58333" stroke-opacity="1" fill="none" fill-rule="evenodd"/><path d="M0 8.00008C-2.03699e-15 3.58176 3.58168-1.01852e-15 7.9999-1.01852e-15 12.4181-2.03703e-15 15.9998 3.58176 15.9998 8.00008 15.9998 12.4184 12.4181 16.0002 7.9999 16.0002 3.58168 16.0002-4.07398e-15 12.4184 0 8.00008Z" stroke="#000000" stroke-width="4.58333" stroke-linecap="butt" stroke-linejoin="miter" stroke-miterlimit="8" stroke-opacity="1" fill="#000000" fill-rule="evenodd" fill-opacity="1" transform="matrix(-1 0 0 1 650.5 995.5)"/></g></g></svg>